<svg width="11" height="11" viewBox="0 0 11 11" fill="none" xmlns="http://www.w3.org/2000/svg">
<path d="M3.80005 0H1.27002C0.57002 0 0 0.571003 0 1.272V3.798C0 4.5 0.57002 5.07001 1.27002 5.07001H3.80005C4.50005 5.07001 5.06995 4.5 5.06995 3.798V1.272C5.06995 0.571003 4.50005 0 3.80005 0ZM4.20996 3.798C4.20996 4.026 4.03005 4.211 3.80005 4.211H1.27002C1.04002 4.211 0.859985 4.026 0.859985 3.798V1.272C0.859985 1.045 1.04002 0.858994 1.27002 0.858994H3.80005C4.03005 0.858994 4.20996 1.045 4.20996 1.272V3.798ZM9.70996 0H7.21997C6.50997 0 5.93005 0.578001 5.93005 1.289V3.78101C5.93005 4.49201 6.50997 5.07001 7.21997 5.07001H9.70996C10.42 5.07001 11 4.49201 11 3.78101V1.289C11 0.578001 10.42 0 9.70996 0ZM10.14 3.78101C10.14 4.01801 9.94996 4.211 9.70996 4.211H7.21997C6.97997 4.211 6.79004 4.01801 6.79004 3.78101V1.289C6.79004 1.052 6.97997 0.858994 7.21997 0.858994H9.70996C9.94996 0.858994 10.14 1.052 10.14 1.289V3.78101ZM3.80005 5.92999H1.27002C0.57002 5.92999 0 6.5 0 7.202V9.728C0 10.429 0.57002 11 1.27002 11H3.80005C4.50005 11 5.06995 10.429 5.06995 9.728V7.202C5.06995 6.5 4.50005 5.92999 3.80005 5.92999ZM4.20996 9.728C4.20996 9.955 4.03005 10.141 3.80005 10.141H1.27002C1.04002 10.141 0.859985 9.955 0.859985 9.728V7.202C0.859985 6.974 1.04002 6.789 1.27002 6.789H3.80005C4.03005 6.789 4.20996 6.974 4.20996 7.202V9.728ZM9.70996 5.92999H7.21997C6.50997 5.92999 5.93005 6.50799 5.93005 7.21899V9.711C5.93005 10.422 6.50997 11 7.21997 11H9.70996C10.42 11 11 10.422 11 9.711V7.21899C11 6.50799 10.42 5.92999 9.70996 5.92999ZM10.14 9.711C10.14 9.948 9.94996 10.141 9.70996 10.141H7.21997C6.97997 10.141 6.79004 9.948 6.79004 9.711V7.21899C6.79004 6.98199 6.97997 6.789 7.21997 6.789H9.70996C9.94996 6.789 10.14 6.98199 10.14 7.21899V9.711Z" fill="white"/>
</svg>
